<svg width="64" height="64" viewBox="0 0 64 64" fill="none" xmlns="http://www.w3.org/2000/svg">
<path d="M24.1067 28.0436C24.9228 28.0436 25.651 28.2169 26.2913 28.5635C26.9441 28.9101 27.4526 29.4236 27.8167 30.104C28.1808 30.7843 28.3628 31.6059 28.3628 32.5687V38.8267H26.2348V32.896C26.2348 31.9461 26.0025 31.2208 25.538 30.7202C25.0734 30.2067 24.4394 29.9499 23.6359 29.9499C22.8324 29.9499 22.1921 30.2067 21.715 30.7202C21.2505 31.2208 21.0183 31.9461 21.0183 32.896V38.8267H18.8714V28.2169H21.0183V29.43C21.3698 28.9936 21.8155 28.6534 22.3553 28.4095C22.9077 28.1656 23.4915 28.0436 24.1067 28.0436Z" fill="white"/>
<path d="M38.8036 28.2169V38.8267H36.6567V37.5751C36.3178 38.0116 35.8721 38.3582 35.3197 38.6149C34.7798 38.8588 34.2023 38.9807 33.5871 38.9807C32.771 38.9807 32.0366 38.8074 31.3837 38.4608C30.7434 38.1142 30.235 37.6008 29.8583 36.9204C29.4942 36.2401 29.3122 35.4185 29.3122 34.4557V28.2169H31.4402V34.1284C31.4402 35.0783 31.6725 35.81 32.137 36.3235C32.6016 36.8241 33.2356 37.0745 34.0391 37.0745C34.8426 37.0745 35.4766 36.8241 35.9411 36.3235C36.4182 35.81 36.6567 35.0783 36.6567 34.1284V28.2169H38.8036Z" fill="white"/>
<path d="M42.446 30.0077V35.8806C42.446 36.2786 42.5339 36.5674 42.7097 36.7471C42.898 36.914 43.2118 36.9974 43.6513 36.9974H44.9695V38.8267H43.2746C42.3079 38.8267 41.5672 38.5956 41.0524 38.1335C40.5377 37.6714 40.2803 36.9204 40.2803 35.8806V30.0077H39.0562V28.2169H40.2803V25.5789H42.446V28.2169H44.9695V30.0077H42.446Z" fill="white"/>
<path d="M47.4002 29.7574C47.7141 29.2182 48.1284 28.801 48.6431 28.5058C49.1704 28.1977 49.7919 28.0436 50.5075 28.0436V30.3158H49.9614C49.1202 30.3158 48.4799 30.534 48.0405 30.9705C47.6136 31.4069 47.4002 32.1643 47.4002 33.2426V38.8267H45.2533V28.2169H47.4002V29.7574Z" fill="white"/>
<path d="M51.8783 26.8113C51.4891 26.8113 51.1626 26.6765 50.899 26.4069C50.6353 26.1374 50.5035 25.8036 50.5035 25.4056C50.5035 25.0077 50.6353 24.6739 50.899 24.4044C51.1626 24.1348 51.4891 24 51.8783 24C52.2549 24 52.5751 24.1348 52.8387 24.4044C53.1024 24.6739 53.2342 25.0077 53.2342 25.4056C53.2342 25.8036 53.1024 26.1374 52.8387 26.4069C52.5751 26.6765 52.2549 26.8113 51.8783 26.8113ZM52.9329 28.2169V38.8267H50.786V28.2169H52.9329Z" fill="white"/>
<path d="M53.341 33.4737C53.341 32.4082 53.5544 31.4647 53.9813 30.6431C54.4207 29.8216 55.0108 29.1861 55.7515 28.7368C56.5048 28.2747 57.3334 28.0436 58.2374 28.0436C59.0534 28.0436 59.7628 28.2105 60.3654 28.5443C60.9806 28.8652 61.4702 29.2696 61.8343 29.7574V28.2169H64V38.8267H61.8343V37.2478C61.4702 37.7484 60.9743 38.1656 60.3466 38.4994C59.7188 38.8331 59.0032 39 58.1997 39C57.3083 39 56.4922 38.7689 55.7515 38.3068C55.0108 37.8318 54.4207 37.1772 53.9813 36.3427C53.5544 35.4955 53.341 34.5392 53.341 33.4737ZM61.8343 33.5122C61.8343 32.7805 61.6836 32.1451 61.3823 31.6059C61.0936 31.0668 60.7107 30.656 60.2336 30.3736C59.7565 30.0911 59.2417 29.9499 58.6893 29.9499C58.1369 29.9499 57.6222 30.0911 57.1451 30.3736C56.668 30.6431 56.2788 31.0475 55.9775 31.5866C55.6887 32.113 55.5444 32.742 55.5444 33.4737C55.5444 34.2054 55.6887 34.8472 55.9775 35.3992C56.2788 35.9512 56.668 36.3748 57.1451 36.6701C57.6347 36.9525 58.1495 37.0937 58.6893 37.0937C59.2417 37.0937 59.7565 36.9525 60.2336 36.6701C60.7107 36.3877 61.0936 35.9769 61.3823 35.4377C61.6836 34.8858 61.8343 34.2439 61.8343 33.5122Z" fill="white"/>
<path d="M14.1888 28.9926C14.0944 29.013 12.8271 29.3094 11.2033 30.3369C10.9594 29.1495 10.2374 26.926 8.10079 24.6647L7.55248 24.0842L7.00417 24.6655C4.86002 26.9351 4.14102 29.1646 3.89935 30.3597C2.26952 29.3147 1.01203 29.0146 0.919892 28.9933L0 28.7872V29.733C0 35.2574 2.96435 38.8267 7.55248 38.8267C12.0696 38.8267 15.105 35.1725 15.105 29.733V28.7918L14.1888 28.9926ZM5.28598 31.2774C5.28749 31.2524 5.40078 28.9282 7.55248 26.3274C9.67775 28.9039 9.81822 31.2486 9.81822 31.2486V31.3433C8.97126 32.0495 8.20844 32.8516 7.54493 33.7335C6.87953 32.8671 6.12209 32.0761 5.28598 31.3744V31.2774ZM7.55248 37.3111C3.53758 37.3111 1.85111 34.1313 1.55808 30.8212C2.80801 31.3653 5.0443 32.6596 6.92562 35.4613L7.56079 36.4078L8.18387 35.4529C10.0161 32.643 12.2811 31.3524 13.5431 30.8136C13.2425 34.0176 11.5583 37.3111 7.55248 37.3111Z" fill="#00F060"/>
</svg>
